<svg xmlns="http://www.w3.org/2000/svg" viewBox="0 0 256 256" focusable="false" color="var(--token-6396e7f2-0645-4f69-9a36-80e94f8ee015, rgb(14, 28, 41))" style="user-select: none; width: 100%; height: 100%; display: inline-block; fill: var(--token-6396e7f2-0645-4f69-9a36-80e94f8ee015, rgb(14, 28, 41)); color: var(--token-6396e7f2-0645-4f69-9a36-80e94f8ee015, rgb(14, 28, 41)); flex-shrink: 0;"><g color="var(--token-6396e7f2-0645-4f69-9a36-80e94f8ee015, rgb(14, 28, 41))" weight="regular"><path d="M40,88H73a32,32,0,0,0,62,0h81a8,8,0,0,0,0-16H135a32,32,0,0,0-62,0H40a8,8,0,0,0,0,16Zm64-24A16,16,0,1,1,88,80,16,16,0,0,1,104,64ZM216,168H199a32,32,0,0,0-62,0H40a8,8,0,0,0,0,16h97a32,32,0,0,0,62,0h17a8,8,0,0,0,0-16Zm-48,24a16,16,0,1,1,16-16A16,16,0,0,1,168,192Z"></path></g></svg>