<svg xmlns="http://www.w3.org/2000/svg" viewBox="0 0 256 256" focusable="false" color="var(--token-6396e7f2-0645-4f69-9a36-80e94f8ee015, rgb(22, 16, 30))" style="user-select: none; width: 100%; height: 100%; display: inline-block; fill: var(--token-6396e7f2-0645-4f69-9a36-80e94f8ee015, rgb(22, 16, 30)); color: var(--token-6396e7f2-0645-4f69-9a36-80e94f8ee015, rgb(22, 16, 30)); flex-shrink: 0;"><g color="var(--token-6396e7f2-0645-4f69-9a36-80e94f8ee015, rgb(22, 16, 30))" weight="fill"><path d="M128,24A104,104,0,1,0,232,128,104.11,104.11,0,0,0,128,24Zm12,152h-4v8a8,8,0,0,1-16,0v-8H104a8,8,0,0,1,0-16h36a12,12,0,0,0,0-24H116a28,28,0,0,1,0-56h4V72a8,8,0,0,1,16,0v8h16a8,8,0,0,1,0,16H116a12,12,0,0,0,0,24h24a28,28,0,0,1,0,56Z"></path></g></svg>