<svg xmlns="http://www.w3.org/2000/svg" viewBox="0 0 256 256" focusable="false" color="var(--token-6396e7f2-0645-4f69-9a36-80e94f8ee015, rgb(14, 28, 41))" style="user-select: none; width: 100%; height: 100%; display: inline-block; fill: var(--token-6396e7f2-0645-4f69-9a36-80e94f8ee015, rgb(14, 28, 41)); color: var(--token-6396e7f2-0645-4f69-9a36-80e94f8ee015, rgb(14, 28, 41)); flex-shrink: 0;"><g color="var(--token-6396e7f2-0645-4f69-9a36-80e94f8ee015, rgb(14, 28, 41))" weight="regular"><path d="M128,24A104,104,0,1,0,232,128,104.11,104.11,0,0,0,128,24Zm0,192a88,88,0,1,1,88-88A88.1,88.1,0,0,1,128,216Zm64-88a8,8,0,0,1-8,8H128a8,8,0,0,1-8-8V72a8,8,0,0,1,16,0v48h48A8,8,0,0,1,192,128Z"></path></g></svg>