<?xml version="1.0" encoding="iso-8859-1"?>
<!-- Uploaded to: SVG Repo, www.svgrepo.com, Generator: SVG Repo Mixer Tools -->
<svg fill="#000000" height="800px" width="800px" version="1.1" id="Layer_1" xmlns="http://www.w3.org/2000/svg" xmlns:xlink="http://www.w3.org/1999/xlink" 
	 viewBox="0 0 511.999 511.999" xml:space="preserve">
<g>
	<g>
		<path d="M183.759,66.836c-64.471,0-116.92,52.45-116.92,116.92c0,64.473,52.45,116.926,116.92,116.926
			s116.92-52.452,116.92-116.926C300.679,119.286,248.229,66.836,183.759,66.836z"/>
	</g>
</g>
<g>
	<g>
		<path d="M381.81,310.913c-10.868-10.884-28.545-10.862-39.39,0l-3.937,3.938l-13.572-13.573
			c26.585-31.879,42.605-72.862,42.605-117.521C367.516,82.431,285.08,0,183.759,0S0.002,82.431,0.002,183.757
			S82.438,367.52,183.759,367.52c44.66,0,85.645-16.023,117.525-42.614l13.573,13.576l-3.941,3.942
			c-10.856,10.857-10.856,28.523,0,39.38l20.329,20.329l70.889-70.893L381.81,310.913z M183.759,334.101
			c-82.897,0-150.339-67.445-150.339-150.344c0-82.897,67.441-150.339,150.339-150.339s150.339,67.441,150.339,150.339
			C334.098,266.656,266.656,334.101,183.759,334.101z"/>
	</g>
</g>
<g>
	<g>
		<path d="M503.855,432.964l-78.093-78.097l-70.89,70.893l78.088,78.092c5.428,5.434,12.564,8.147,19.69,8.147
			c7.136,0,14.273-2.715,19.701-8.147l31.503-31.509C514.711,461.486,514.711,443.82,503.855,432.964z"/>
	</g>
</g>
</svg>